<svg width="950" height="555" viewBox="0 0 950 555" fill="none" xmlns="http://www.w3.org/2000/svg">
<g filter="url(#filter0_b_17_5)">
<g clip-path="url(#clip0_17_5)">
<path d="M950 0H0V555H950V0Z" fill="#F3E9F3" fill-opacity="0.5"/>
<path d="M723.253 365.324H768.918C779.735 365.324 788.5 372.712 788.5 381.828V420.317C788.5 429.434 779.735 436.822 768.918 436.822H723.253C712.436 436.822 703.671 429.434 703.671 420.317V381.828C703.671 372.712 712.436 365.324 723.253 365.324Z" fill="white"/>
<path d="M680.96 105.047H726.388C737.147 105.047 745.869 110.5 745.869 117.226V145.626C745.869 152.352 737.147 157.805 726.388 157.805H680.96C670.201 157.805 661.479 152.352 661.479 145.626V117.226C661.479 110.5 670.201 105.047 680.96 105.047Z" fill="white"/>
<path d="M741.496 238.63H541.967V417.422H741.496V238.63Z" stroke="black" stroke-width="4" stroke-linecap="round" stroke-linejoin="round"/>
<path d="M641.729 238.63C696.853 238.63 741.496 278.637 741.496 328.028C741.496 377.418 696.853 417.422 641.729 417.422C586.61 417.422 541.967 377.418 541.967 328.028C541.967 278.637 586.61 238.63 641.729 238.63Z" stroke="black" stroke-width="4" stroke-linecap="round" stroke-linejoin="round"/>
<path d="M752.4 318.257H730.597V337.794H752.4V318.257Z" fill="#9E9E9E"/>
<path d="M552.866 318.257H531.068V337.794H552.866V318.257Z" fill="#9E9E9E"/>
<path d="M652.633 228.863H630.83V248.396H652.633V228.863Z" fill="#9E9E9E"/>
<path d="M652.633 407.655H630.83V427.192H652.633V407.655Z" fill="#9E9E9E"/>
<path d="M641.729 318.898V337.158" stroke="black" stroke-width="4" stroke-linecap="round" stroke-linejoin="round"/>
<path d="M651.923 328.028H631.54" stroke="black" stroke-width="4" stroke-linecap="round" stroke-linejoin="round"/>
<path d="M248.863 104.738H434.097C448.387 104.738 459.954 115.163 459.954 128.089V323.103C459.954 335.979 448.387 346.403 434.097 346.403H248.863C234.573 346.403 223 335.979 223 323.103V128.089C223 115.213 234.573 104.738 248.863 104.738Z" fill="#9E9E9E"/>
<path d="M442.201 130.434H223.274V329.957H442.201V130.434Z" fill="#9E9E9E"/>
<path d="M265.234 167.383H310.478C312.312 167.393 314.07 167.961 315.37 168.974C316.671 169.987 317.395 171.356 317.413 172.781C317.395 174.21 316.671 175.579 315.37 176.592C314.07 177.605 312.312 178.173 310.478 178.183H265.234C263.405 178.173 261.648 177.605 260.348 176.592C259.047 175.579 258.317 174.21 258.305 172.781C258.317 171.356 259.047 169.987 260.348 168.974C261.648 167.961 263.405 167.393 265.234 167.383Z" fill="white"/>
<path d="M338.212 167.383H354.267C356.096 167.393 357.853 167.961 359.153 168.974C360.454 169.987 361.184 171.356 361.196 172.781C361.184 174.21 360.454 175.579 359.153 176.592C357.853 177.605 356.096 178.173 354.267 178.183H338.212C336.377 178.173 334.62 177.605 333.319 176.592C332.019 175.579 331.295 174.21 331.277 172.781C331.295 171.356 332.019 169.987 333.319 168.974C334.62 167.961 336.377 167.393 338.212 167.383Z" fill="#D5FF2E"/>
<path d="M381.265 167.383H397.32C399.154 167.393 400.912 167.961 402.206 168.974C403.507 169.987 404.237 171.356 404.255 172.781C404.237 174.21 403.507 175.579 402.206 176.592C400.912 177.605 399.154 178.173 397.32 178.183H381.265C379.436 178.173 377.673 177.605 376.378 176.592C375.078 175.579 374.348 174.21 374.336 172.781C374.348 171.356 375.078 169.987 376.378 168.974C377.673 167.961 379.436 167.393 381.265 167.383Z" fill="white"/>
<path d="M265.234 253.501H310.478C312.312 253.51 314.07 254.079 315.37 255.092C316.671 256.105 317.395 257.474 317.413 258.903C317.395 260.327 316.671 261.696 315.37 262.709C314.07 263.722 312.312 264.291 310.478 264.3H265.234C263.405 264.291 261.648 263.722 260.348 262.709C259.047 261.696 258.317 260.327 258.305 258.903C258.317 257.474 259.047 256.105 260.348 255.092C261.648 254.079 263.405 253.51 265.234 253.501Z" fill="white"/>
<path d="M338.212 253.501H397.32C399.154 253.51 400.912 254.079 402.206 255.092C403.507 256.105 404.237 257.474 404.255 258.903C404.237 260.327 403.507 261.696 402.206 262.709C400.912 263.722 399.154 264.291 397.32 264.3H338.212C336.377 264.291 334.62 263.722 333.319 262.709C332.019 261.696 331.295 260.327 331.277 258.903C331.295 257.474 332.019 256.105 333.319 255.092C334.62 254.079 336.377 253.51 338.212 253.501Z" fill="#F3F2E9"/>
<path d="M265.234 224.793H335.291C337.125 224.807 338.883 225.376 340.183 226.384C341.477 227.397 342.208 228.766 342.226 230.195C342.208 231.62 341.477 232.994 340.183 234.002C338.883 235.015 337.125 235.584 335.291 235.593H265.234C263.405 235.584 261.648 235.015 260.348 234.002C259.047 232.994 258.317 231.62 258.305 230.195C258.317 228.766 259.047 227.397 260.348 226.384C261.648 225.376 263.405 224.807 265.234 224.793Z" fill="#D5FF2E"/>
<path d="M309.023 196.091H354.267C356.096 196.1 357.853 196.669 359.153 197.682C360.454 198.69 361.184 200.064 361.196 201.488C361.184 202.917 360.454 204.286 359.153 205.299C357.853 206.307 356.096 206.876 354.267 206.89H309.023C307.188 206.876 305.431 206.307 304.131 205.299C302.83 204.286 302.1 202.917 302.088 201.488C302.1 200.064 302.83 198.69 304.131 197.682C305.431 196.669 307.188 196.1 309.023 196.091Z" fill="#F3F2E9"/>
<path d="M265.234 196.091H281.289C283.124 196.1 284.881 196.669 286.182 197.682C287.476 198.69 288.206 200.064 288.224 201.488C288.206 202.917 287.476 204.286 286.182 205.299C284.881 206.307 283.124 206.876 281.289 206.89H265.234C263.405 206.876 261.648 206.307 260.348 205.299C259.047 204.286 258.317 202.917 258.305 201.488C258.317 200.064 259.047 198.69 260.348 197.682C261.648 196.669 263.405 196.1 265.234 196.091Z" fill="white"/>
<path d="M381.265 196.091H397.32C399.154 196.1 400.912 196.669 402.206 197.682C403.507 198.69 404.237 200.064 404.255 201.488C404.237 202.917 403.507 204.286 402.206 205.299C400.912 206.307 399.154 206.876 397.32 206.89H381.265C379.436 206.876 377.673 206.307 376.378 205.299C375.078 204.286 374.348 202.917 374.336 201.488C374.348 200.064 375.078 198.69 376.378 197.682C377.673 196.669 379.436 196.1 381.265 196.091Z" fill="#F3F2E9"/>
<path d="M309.023 282.208H397.32C399.154 282.217 400.912 282.786 402.206 283.799C403.507 284.812 404.237 286.181 404.255 287.606C404.237 289.035 403.507 290.404 402.206 291.417C400.912 292.425 399.154 292.994 397.32 293.008H309.023C307.188 292.994 305.431 292.425 304.131 291.417C302.83 290.404 302.1 289.035 302.088 287.606C302.1 286.181 302.83 284.812 304.131 283.799C305.431 282.786 307.188 282.217 309.023 282.208Z" fill="white"/>
<path d="M265.234 282.208H281.289C283.124 282.217 284.881 282.786 286.182 283.799C287.476 284.812 288.206 286.181 288.224 287.606C288.206 289.035 287.476 290.404 286.182 291.417C284.881 292.425 283.124 292.994 281.289 293.008H265.234C263.405 292.994 261.648 292.425 260.348 291.417C259.047 290.404 258.317 289.035 258.305 287.606C258.317 286.181 259.047 284.812 260.348 283.799C261.648 282.786 263.405 282.217 265.234 282.208Z" fill="#D5FF2E"/>
<path d="M408.684 122.271L438.817 145.743" stroke="#23221F" stroke-width="4" stroke-linecap="round" stroke-linejoin="round"/>
<path d="M438.817 122.271L408.684 145.743" stroke="#23221F" stroke-width="4" stroke-linecap="round" stroke-linejoin="round"/>
<path d="M246.763 396.039H153.514C148.378 396.039 144.186 392.778 144.186 388.777V337.671C144.186 333.671 148.378 330.405 153.514 330.405H178.719C182.026 330.405 185.072 331.774 186.758 333.985L189.662 337.829C191.354 340.039 194.394 341.408 197.707 341.408H246.828C251.964 341.408 256.156 344.669 256.156 348.67V388.777C256.156 392.778 251.964 396.039 246.763 396.039C246.828 396.039 246.828 396.039 246.763 396.039Z" fill="#FFE11F"/>
<path d="M721.501 253.864L739.88 245.449H788.747C795.231 245.443 801.447 243.551 806.031 240.185C810.619 236.815 813.191 232.25 813.2 227.488C813.191 222.73 810.619 218.165 806.031 214.796C801.447 211.43 795.231 209.537 788.747 209.531H745.955C739.471 209.537 733.254 211.43 728.666 214.796C724.082 218.165 721.506 222.73 721.501 227.488V253.864Z" fill="#FFE11F"/>
<path d="M748.896 230.802C751.388 230.802 753.404 229.319 753.404 227.489C753.404 225.662 751.388 224.178 748.896 224.178C746.404 224.178 744.388 225.662 744.388 227.489C744.388 229.319 746.404 230.802 748.896 230.802Z" fill="#DBDBDB"/>
<path d="M767.311 230.802C769.803 230.802 771.818 229.319 771.818 227.489C771.818 225.662 769.803 224.178 767.311 224.178C764.823 224.178 762.803 225.662 762.803 227.489C762.803 229.319 764.823 230.802 767.311 230.802Z" fill="#DBDBDB"/>
<path d="M785.805 230.802C788.297 230.802 790.313 229.319 790.313 227.489C790.313 225.662 788.297 224.178 785.805 224.178C783.313 224.178 781.297 225.662 781.297 227.489C781.297 229.319 783.313 230.802 785.805 230.802Z" fill="#DBDBDB"/>
<path d="M100.587 273.236C117.355 282.379 154.583 270.882 177.502 259.782C202.991 247.414 203.834 234.483 193.545 234.612C179.235 234.788 144.525 269.577 165.264 276.848C182.364 282.902 213.168 271.363 221.326 278.328C229.49 285.298 233.29 300.884 255.704 308.635" stroke="#23221F" stroke-width="4" stroke-linecap="round" stroke-linejoin="round"/>
<path d="M28.6431 113.582C47.6683 108.144 60.9038 76.6317 65.3836 54.7727C70.3459 30.4482 59.0877 21.9877 52.6489 28.834C43.6907 38.3521 53.3047 82.4491 73.1525 73.2545C89.5715 65.7099 98.6752 38.3966 110.227 37.2897C121.787 36.1818 138.426 43.2117 159.779 33.21" stroke="#23221F" stroke-width="4" stroke-linecap="round" stroke-linejoin="round"/>
<path d="M310.145 448.019C301.465 449.124 295.575 455.498 296.994 462.259C298.407 469.021 306.595 473.605 315.275 472.504C323.95 471.403 329.84 465.025 328.427 458.263C327.008 451.502 318.826 446.918 310.145 448.019Z" fill="white"/>
<path d="M268.161 427.628C261.731 428.446 257.367 433.168 258.418 438.182C259.463 443.191 265.531 446.59 271.967 445.776C278.397 444.957 282.762 440.231 281.711 435.222C280.666 430.208 274.597 426.809 268.161 427.628Z" fill="#9E9E9E"/>
<path d="M134.306 225.469C140.03 225.469 144.673 221.857 144.673 217.393C144.673 212.935 140.03 209.318 134.306 209.318C128.582 209.318 123.939 212.935 123.939 217.393C123.939 221.857 128.582 225.469 134.306 225.469Z" fill="white"/>
<path d="M567.239 81.289C574.904 81.289 581.115 86.1314 581.115 92.0976C581.115 94.794 579.809 97.2915 577.719 99.1878C575.124 101.468 571.443 102.879 567.239 102.879C562.341 102.879 558.036 100.881 555.584 97.9714C554.188 96.2879 553.363 94.2529 553.363 92.0976C553.363 86.1314 559.58 81.289 567.239 81.289Z" fill="white"/>
<path d="M665.065 145.22L684.196 111.606L682.658 146.969L720.557 146.28L686.44 162.19L704.443 191.253L672.327 170.607L652.555 197.002L657.216 166.833L618.254 167.568L654.384 152.671L631.714 126.688L665.065 145.22Z" fill="#9E9E9E"/>
<path d="M194.792 147.255L245.634 160.395L196.009 168.225L200.224 199.305L173.06 173.535L140.867 195.957L158.792 161.782L110.544 158.119L158.709 149.087L139.169 119.593L176.065 140.623L200.064 111.823L194.792 147.255Z" fill="#FFE11F"/>
<path d="M379.163 425.01L376.123 457.82L397.943 427.378L428.028 450.244L412.532 417.009L462.793 414.927L412.532 403.374L433.74 370.282L395.271 392.866L373.267 363.132L377.702 398.781L330.357 393.148L368.404 412.277L337.286 432.872L379.163 425.01Z" fill="#D5FF2E"/>
<path d="M855.458 478.468L853.713 495.908L866.235 479.727L883.5 491.881L874.607 474.215L903.45 473.108L874.607 466.967L886.778 449.376L864.702 461.381L852.075 445.576L854.62 464.526L827.45 461.531L849.284 471.7L831.426 482.647L855.458 478.468Z" fill="#D5FF2E"/>
<path d="M554.975 388.527C558.352 389.126 580.424 380.784 581.2 380.5C581.2 380.5 581.2 380.5 581.2 380.47C581.807 372.222 581.027 363.818 578.951 355.728C578.951 355.728 578.951 355.695 578.91 355.695L557.184 352.527L537.753 355.85C537.707 355.85 537.707 355.883 537.707 355.883C541.863 362.75 544.852 368.208 545.627 372.189C545.673 372.314 551.599 387.932 554.975 388.527Z" fill="#A66241"/>
<path d="M491.184 386.96C494.433 387.525 518.408 380.784 519.229 380.533C519.229 380.533 519.275 380.533 519.275 380.5C520.356 374.166 521.524 368.959 521.739 361.778C521.784 359.771 521.652 357.734 521.565 355.665C521.565 355.665 521.565 355.632 521.524 355.632L502.308 353.718L480.928 355.569C480.887 355.569 480.887 355.602 480.887 355.602C482.014 360.68 482.79 365.385 482.876 369.243C482.876 370.278 482.876 371.187 482.835 372.096C482.835 372.129 482.835 372.129 482.876 372.129C489.328 372.284 487.767 386.332 491.184 386.96Z" fill="#A66241"/>
<path d="M419.428 169.95C418.52 169.292 415.189 170.235 415.536 173.557C415.536 173.587 415.49 173.62 415.449 173.587C411.512 168.195 401.256 157.47 398.701 163.021C398.701 163.051 398.655 163.051 398.655 163.051C395.238 161.546 393.55 163.993 394.371 166.155C394.371 166.188 394.371 166.188 394.33 166.188C390.52 166.218 390.908 168.978 391.775 170.545V170.578C387.537 172.489 396.452 183.34 397.013 183.717C398.267 186.54 400.476 191.84 403.938 194.379C403.938 194.379 403.938 194.379 403.938 194.412C403.765 197.328 403.719 200.151 403.806 202.69C403.806 202.723 403.806 202.723 403.852 202.723L417.913 203.318C417.913 203.318 417.913 203.318 417.959 203.318L432.065 195.949V195.916C429.036 187.294 423.757 173.088 419.428 169.95Z" fill="#A66241"/>
<path d="M473.528 148.375C478.638 140.252 491.618 137.931 504.602 143.013C515.725 147.466 514.297 152.389 513.517 158.974C513.303 160.7 514.384 167.725 513.732 172.992C513.558 174.437 513.303 175.752 513.129 176.88L512.997 177.29L482.79 177.915C482.749 177.915 482.703 176.943 482.703 176.943L483.009 175.438C483.009 175.409 482.963 175.409 482.963 175.409C466.215 177.667 462.971 169.23 467.383 160.419V160.386C463.879 157.91 464.572 156.31 469.764 156.029C469.764 156.029 469.81 156.029 469.81 155.995C470.371 154.114 472.406 150.131 473.528 148.375Z" fill="#A66241"/>
<path opacity="0.2" d="M483.004 175.438L482.699 176.88V176.913L482.352 180.361C482.352 180.394 482.397 180.394 482.438 180.394L491.832 173.494C491.873 173.465 491.832 173.432 491.787 173.432C486.855 174.747 483.351 175.346 483.004 175.438C483.004 175.409 483.004 175.409 483.004 175.438Z" fill="#171717"/>
<path d="M471.534 163.679C471.534 163.679 473.743 164.056 475.517 162.581" stroke="#171717" stroke-width="4" stroke-linecap="round" stroke-linejoin="round"/>
<path d="M483.004 175.409C484.733 175.095 490.144 174.027 491.787 173.465" stroke="#171717" stroke-width="4" stroke-linecap="round" stroke-linejoin="round"/>
<path d="M494.127 165.342L498.151 163.146" stroke="#171717" stroke-width="4" stroke-linecap="round" stroke-linejoin="round"/>
<path d="M475.645 155.275C477.42 155.304 477.42 157.189 475.645 157.219C473.87 157.189 473.87 155.304 475.645 155.275Z" fill="#17151C"/>
<path d="M515.42 160.197C516.287 153.645 515.986 145.991 504.862 141.571C491.577 136.771 479.067 138.592 473.528 148.345V148.375C473.834 148.626 478.419 152.17 491.271 148.593C491.317 148.593 491.358 148.626 491.317 148.626C488.849 151.228 486.426 156.247 489.241 160.231C489.241 160.26 489.282 160.26 489.328 160.231C506.377 151.575 513.129 163.586 498.416 170.264C498.37 170.264 498.37 170.294 498.416 170.327C504.256 173.557 513.084 173.025 513.691 172.962L513.732 172.929C514.425 167.944 515.119 161.923 515.42 160.197Z" fill="#17151C"/>
<path d="M532.209 193.251C526.018 186.352 520.393 183.34 512.605 181.145L512.559 181.115L513.125 176.943C513.125 176.913 513.125 176.913 513.079 176.913H482.744C482.699 176.913 482.699 176.913 482.699 176.943L482.051 180.708C482.051 180.738 482.01 180.738 482.01 180.738C462.232 179.892 445.57 193.314 434.146 202.472C434.1 202.502 434.059 202.472 434.059 202.472C433.927 202.062 433.192 199.586 431.979 195.979C431.979 195.949 431.938 195.949 431.938 195.949L403.765 202.723L403.719 202.753C403.893 236.465 427.22 239.444 455.092 224.894C458.942 222.98 462.533 220.847 465.822 218.434C465.863 218.401 465.863 218.434 465.909 218.434L469.586 227.089L473.396 236.058L473.437 236.088L498.84 239.695L519.832 236.151H519.873L525.977 241.672C526.064 241.92 529.828 253.399 533.291 251.392C536.448 249.54 538.829 247.064 540.476 244.211C549.606 228.626 538.962 200.839 532.209 193.251Z" fill="#FFE11F"/>
<path opacity="0.2" d="M540.431 244.241C526.15 236.716 524.549 218.715 524.376 216.268C524.376 216.238 524.289 216.238 524.289 216.268C523.294 220.784 520.826 232.012 519.918 236.058V236.088L525.977 241.798C526.064 241.953 532.077 252.711 535.106 250.294C538.483 247.881 540.344 244.588 540.517 244.304C540.431 244.274 540.431 244.274 540.431 244.241Z" fill="#0E0E0E"/>
<path d="M568.822 332.741C557.051 314.458 553.675 317.999 543.674 270.617C540.171 254.027 531.516 243.646 519.873 236.058C519.873 236.058 519.873 236.058 519.832 236.058H505.592H473.396C473.396 236.058 473.35 236.058 473.35 236.088C473.136 237.156 465.562 273.784 472.182 318.597C473.61 328.35 476.986 339.859 479.541 350.24C480.016 352.121 480.449 353.781 480.796 355.602C480.796 355.602 480.796 355.632 480.837 355.632L521.433 355.665C521.474 355.665 521.474 355.665 521.474 355.632C520.913 345.188 518.317 334.245 512.559 318.062C511.61 314.521 510.784 307.84 510.958 307.84C514.507 316.181 518.791 325.057 523.815 333.931C527.88 341.145 532.469 348.418 537.616 355.85C537.616 355.85 537.616 355.883 537.661 355.883C538.743 355.883 577.258 355.758 578.859 355.758C578.905 355.758 578.905 355.728 578.905 355.728C576.911 347.697 573.494 340.14 568.822 332.741Z" fill="#D5FF2E"/>
<path d="M569.689 380.5C563.763 380.5 558.698 386.021 555.281 385.423C551.818 384.828 558.265 379.905 558.265 375.921C558.265 372.41 552.726 372.251 545.714 372.222C545.673 372.222 545.673 372.251 545.673 372.251C546.321 375.263 545.846 377.584 543.725 379.151C537.319 384.044 531.347 385.172 527.063 389.813C526.716 390.223 526.242 390.66 526.023 391.162C526.023 391.195 526.023 391.195 526.068 391.195C527.971 391.258 576.14 392.511 577.135 392.544C577.135 392.544 577.135 392.544 577.176 392.544L579.558 391.162C579.558 391.162 579.558 391.162 579.558 391.132C580.338 387.588 580.899 384.044 581.159 380.5C581.159 380.47 581.159 380.47 581.113 380.47L569.689 380.5Z" fill="#FFE11F"/>
<path d="M502.96 256.536C507.198 256.536 509.708 254.057 508.585 250.985L506.29 244.902H490.97L493.219 250.985C494.433 254.057 498.758 256.536 502.96 256.536Z" stroke="#050602" stroke-width="4" stroke-linecap="round" stroke-linejoin="round"/>
<path d="M530.736 244.932H522.3L524.549 251.048C525.717 254.09 530.348 256.629 533.724 256.629C535.499 256.629 536.794 256.377 537.748 255.941" stroke="#050602" stroke-width="4" stroke-linecap="round" stroke-linejoin="round"/>
<path d="M473.396 236.088L519.832 236.025L524.289 216.268" stroke="#0E0E0E" stroke-width="4" stroke-linecap="round" stroke-linejoin="round"/>
<path d="M521.647 229.41L527.752 230.822" stroke="#0E0E0E" stroke-width="4" stroke-linecap="round" stroke-linejoin="round"/>
<path d="M434.146 202.472L437.481 199.804" stroke="#0E0E0E" stroke-width="4" stroke-linecap="round" stroke-linejoin="round"/>
<path opacity="0.2" d="M465.868 218.434L469.55 227.026C469.55 227.056 469.636 227.056 469.636 227.026L477.21 211.031C477.21 211.002 477.164 210.969 477.123 211.002L465.868 218.434C465.868 218.401 465.868 218.401 465.868 218.434Z" fill="#0E0E0E"/>
<path d="M465.868 218.463L477.123 211.002" stroke="#0E0E0E" stroke-width="4" stroke-linecap="round" stroke-linejoin="round"/>
<path d="M482.055 180.708C482.055 180.708 478.985 180.612 476.69 180.834" stroke="#0E0E0E" stroke-width="4" stroke-linecap="round" stroke-linejoin="round"/>
<path d="M518.235 271.274C516.2 284.383 509.708 291.815 511.008 307.81" stroke="#050602" stroke-width="4" stroke-linecap="round" stroke-linejoin="round"/>
<path d="M398.66 163.021C402.989 166.783 411.211 176.159 411.211 176.159" stroke="#171717" stroke-width="4" stroke-linecap="round" stroke-linejoin="round"/>
<path d="M394.284 166.188C396.452 168.383 402.51 174.906 406.014 179.297" stroke="#171717" stroke-width="4" stroke-linecap="round" stroke-linejoin="round"/>
<path d="M391.688 170.578C391.688 170.578 398.226 178.701 401.256 182.464" stroke="#171717" stroke-width="4" stroke-linecap="round" stroke-linejoin="round"/>
<path d="M505.985 380.374C500.054 380.374 494.903 385.958 491.527 385.36C485.988 384.074 506.546 371.594 482.872 372.189C482.831 372.189 482.831 372.189 482.831 372.222C482.959 383.165 464.262 383.479 459.503 391.162C459.503 391.162 459.503 391.162 459.503 391.195C459.549 391.288 459.805 391.916 459.85 392.042C459.85 392.042 459.85 392.071 459.891 392.071L515.374 392.385H515.415L516.629 391.225C517.71 387.714 518.618 384.137 519.311 380.596C519.311 380.563 519.311 380.563 519.27 380.563C518.358 380.5 505.985 380.374 505.985 380.374Z" fill="#FFE11F"/>
<path d="M415.454 173.587C416.489 174.969 418.351 177.32 418.351 177.32" stroke="#171717" stroke-width="4" stroke-linecap="round" stroke-linejoin="round"/>
<path d="M478.674 379.746L482.612 382.318" stroke="black" stroke-width="4" stroke-linecap="round" stroke-linejoin="round"/>
<path d="M474.395 382.318L477.424 385.456" stroke="black" stroke-width="4" stroke-linecap="round" stroke-linejoin="round"/>
<path d="M542.99 379.905L546.708 382.318" stroke="black" stroke-width="4" stroke-linecap="round" stroke-linejoin="round"/>
<path d="M538.829 382.381L541.512 385.456" stroke="black" stroke-width="4" stroke-linecap="round" stroke-linejoin="round"/>
<path d="M524.503 395.678H578.253C578.253 395.678 578.298 395.678 578.298 395.648C578.385 395.46 578.946 393.86 579.553 391.195C579.553 391.162 579.553 391.162 579.512 391.162L526.018 391.195C526.018 391.195 525.977 391.195 525.977 391.225C525.11 392.607 524.549 394.111 524.417 395.648C524.462 395.648 524.503 395.678 524.503 395.678Z" fill="black"/>
<path d="M459.462 391.195C458.596 392.607 458.075 394.141 457.989 395.648C457.989 395.678 457.989 395.678 458.034 395.678H514.941C514.941 395.678 514.986 395.678 514.986 395.648C515.073 395.46 515.634 393.986 516.542 391.195C516.542 391.162 516.542 391.162 516.501 391.162C514.681 391.07 460.845 391.195 459.462 391.195C459.462 391.162 459.462 391.162 459.462 391.195Z" fill="black"/>
<path opacity="0.2" d="M511.008 307.839C512.737 311.853 514.904 316.901 517.24 321.417C519.316 325.494 521.739 330.294 523.773 333.776C523.773 333.805 523.86 333.805 523.86 333.776C523.559 330.357 519.188 280.713 518.235 271.337C518.235 271.304 518.148 271.304 518.148 271.337C516.547 283.13 510.447 293.855 511.008 307.839Z" fill="#050602"/>
</g>
</g>
<defs>
<filter id="filter0_b_17_5" x="-10" y="-10" width="970" height="575" filterUnits="userSpaceOnUse" color-interpolation-filters="sRGB">
<feFlood flood-opacity="0" result="BackgroundImageFix"/>
<feGaussianBlur in="BackgroundImageFix" stdDeviation="5"/>
<feComposite in2="SourceAlpha" operator="in" result="effect1_backgroundBlur_17_5"/>
<feBlend mode="normal" in="SourceGraphic" in2="effect1_backgroundBlur_17_5" result="shape"/>
</filter>
<clipPath id="clip0_17_5">
<rect width="950" height="555" rx="40" fill="white"/>
</clipPath>
</defs>
</svg>
