<svg width="100" height="100" viewBox="0 0 100 100" fill="none" xmlns="http://www.w3.org/2000/svg">
<rect width="100" height="100" rx="50" fill="white"/>
<path d="M51.1759 15.5C53.9061 15.5 56.5176 16.6163 58.4043 18.5898L73.3917 34.2674C75.1706 36.1282 76.1633 38.6033 76.1633 41.1776V70.5C76.1633 76.0229 71.6862 80.5 66.1633 80.5H37.8333C32.3105 80.5 27.8333 76.0228 27.8333 70.5V25.5C27.8333 19.9772 32.3105 15.5 37.8333 15.5H51.1759Z" stroke="#85B6FF" stroke-width="2" stroke-linecap="round" stroke-linejoin="round"/>
<path d="M53.7244 15.5V25.3611C53.7244 30.884 58.2016 35.3611 63.7244 35.3611H76.1633" stroke="#85B6FF" stroke-linecap="round" stroke-linejoin="round"/>
<path d="M45.094 51.6113L44.7957 51.9234C41.1002 55.789 41.1002 61.8781 44.7957 65.7437L45.094 66.0558" stroke="#85B6FF" stroke-width="2" stroke-linecap="round" stroke-linejoin="round"/>
<path d="M58.9026 51.6113L59.2009 51.9234C62.8964 55.789 62.8964 61.8781 59.2009 65.7437L58.9026 66.0558" stroke="#85B6FF" stroke-width="2" stroke-linecap="round" stroke-linejoin="round"/>
<path d="M27.8333 20.5C27.8333 17.7386 30.0719 15.5 32.8333 15.5H48.7244C51.4858 15.5 53.7244 17.7386 53.7244 20.5V30.3611C53.7244 33.1225 55.963 35.3611 58.7244 35.3611H71.1633C73.9247 35.3611 76.1633 37.5997 76.1633 40.3611V75.5C76.1633 78.2614 73.9248 80.5 71.1633 80.5H32.8333C30.0719 80.5 27.8333 78.2614 27.8333 75.5V20.5Z" fill="#85B6FF" fill-opacity="0.3"/>
</svg>
