<svg width="100" height="100" viewBox="0 0 100 100" fill="none" xmlns="http://www.w3.org/2000/svg">
<rect width="100" height="100" rx="50" fill="white"/>
<mask id="mask0_53_73" style="mask-type:luminance" maskUnits="userSpaceOnUse" x="15" y="19" width="72" height="57">
<path d="M50.835 61.5023C61.6302 61.5023 70.3814 51.9878 70.3814 40.2512C70.3814 28.5145 61.6302 19 50.835 19C40.0398 19 31.2886 28.5145 31.2886 40.2512C31.2886 51.9878 40.0398 61.5023 50.835 61.5023Z" fill="white"/>
<path d="M63.8659 47.335H34.5463V75.6698H63.8659V47.335Z" fill="white"/>
<path d="M44.3195 33.1675H34.5464C23.7512 33.1675 15 42.6819 15 54.4186C15 66.1553 23.7512 75.6698 34.5464 75.6698H44.3195C55.1147 75.6698 63.8659 66.1553 63.8659 54.4186C63.8659 42.6819 55.1147 33.1675 44.3195 33.1675Z" fill="white"/>
<path d="M70.3813 40.2515H60.6082C51.6122 40.2515 44.3195 48.1802 44.3195 57.9608C44.3195 67.7413 51.6122 75.6701 60.6082 75.6701H70.3813C79.3773 75.6701 86.67 67.7413 86.67 57.9608C86.67 48.1802 79.3773 40.2515 70.3813 40.2515Z" fill="white"/>
<path d="M50.835 54.4189C58.0318 54.4189 63.8659 48.0759 63.8659 40.2514C63.8659 32.427 58.0318 26.084 50.835 26.084C43.6382 26.084 37.8041 32.427 37.8041 40.2514C37.8041 48.0759 43.6382 54.4189 50.835 54.4189Z" fill="black"/>
<path d="M63.8659 47.335H34.5463V68.5861H63.8659V47.335Z" fill="black"/>
<path d="M44.3195 40.2515H34.5463C27.3496 40.2515 21.5154 46.5944 21.5154 54.4189C21.5154 62.2434 27.3496 68.5863 34.5463 68.5863H44.3195C51.5163 68.5863 57.3504 62.2434 57.3504 54.4189C57.3504 46.5944 51.5163 40.2515 44.3195 40.2515Z" fill="black"/>
<path d="M70.3813 47.335H60.6081C55.2106 47.335 50.835 52.0922 50.835 57.9605C50.835 63.8289 55.2106 68.5861 60.6081 68.5861H70.3813C75.7789 68.5861 80.1545 63.8289 80.1545 57.9605C80.1545 52.0922 75.7789 47.335 70.3813 47.335Z" fill="black"/>
<path d="M42.6907 40.2515H52.4639V54.4189H42.6907V40.2515Z" fill="white"/>
<path d="M34.5463 50.877H60.6081L47.5772 65.0444L34.5463 50.877Z" fill="white"/>
</mask>
<g mask="url(#mask0_53_73)">
<path d="M86.67 4.83252H8.48456V89.8371H86.67V4.83252Z" fill="#FF9A62"/>
</g>
</svg>
