<svg width="100" height="100" viewBox="0 0 100 100" fill="none" xmlns="http://www.w3.org/2000/svg">
<rect width="100" height="100" rx="50" fill="white"/>
<path d="M28 24.0832C28 21.46 30.1265 19.3335 32.7498 19.3335H63.2503C65.8735 19.3335 68 21.46 68 24.0832C68 26.7065 65.8735 28.833 63.2502 28.833H32.7497C30.1265 28.833 28 26.7065 28 24.0832ZM28 77.9137C28 80.537 30.1265 82.6635 32.7498 82.6635H63.2503C65.8735 82.6635 68 80.537 68 77.9137C68 75.2905 65.8735 73.164 63.2502 73.164H32.7497C30.1265 73.164 28 75.2905 28 77.9137Z" fill="#E4A951"/>
<path d="M48 19.3335H64.6667C66.5 19.3335 68 20.7584 68 22.5V79.497C68 81.2386 66.5 82.6635 64.6667 82.6635H31.3333C29.5 82.6635 28 81.2386 28 79.497V22.5C28 20.7584 29.5 19.3335 31.3333 19.3335H48Z" stroke="#E4A951" stroke-width="2" stroke-linecap="round" stroke-linejoin="round"/>
</svg>
